#!OML:ASF X:\für Bonn\!DataBase\2005_08_11_Bastian_Final\c3d\Bastian.ASF
:FULLY-SPECIFIED
:DEGREES
48
root -2.95815 16.1638 -23.413 163.816 -32.4204 -180.021
lowerback 10.7096 0.101134 -4.32209
upperback 9.87609 -1.21115 -1.50994
thorax 4.39366 -1.27045 0.886642
lowerneck 4.62321 -9.08332 -12.1294
upperneck -2.47972 -13.1326 20.6847
head 0.751755 -7.03577 8.17888
rclavicle 3.47873e-015 -3.73715e-014
rhumerus -9.97648 26.129 -88.4122
rradius 122.011
rwrist 17.4073
rhand -32.4 11.1077
rfingers 7.12502
rthumb -5.6349 -18.7974
lclavicle 3.47873e-015 -3.73715e-014
lhumerus 7.05805 -55.0442 92.2213
lradius 111.114
lwrist 43.0007
lhand -15.8004 -21.7832
lfingers 7.12502
lthumb 10.3927 7.93992
rfemur -24.1858 -2.95404 8.90517
rtibia 48.6426
rfoot -183.535 -182.602
rtoes -12.5427
lfemur 14.9105 -14.2669 -7.76242
ltibia 46.5185
lfoot -13.4498 -9.31333
ltoes -46.8197
49
root -2.9135 16.1559 -23.5568 163.168 -32.4684 -179.563
lowerback 10.8557 0.232554 -3.8945
upperback 9.9877 -1.02975 -1.39505
thorax 4.41743 -1.16785 0.756136
lowerneck 4.68952 -8.97028 -12.3631
upperneck -2.13859 -13.0453 20.763
head 0.843719 -6.98432 8.24238
rclavicle 3.77691e-014 2.54444e-014
rhumerus -8.87151 26.4563 -87.9928
rradius 121.717
rwrist 17.6454
rhand -32.5153 10.4778
rfingers 7.12502
rthumb -5.7463 -19.4242
lclavicle 3.77691e-014 2.54444e-014
lhumerus 8.13846 -54.5741 91.3591
lradius 110.916
lwrist 43.1716
lhand -15.6751 -22.001
lfingers 7.12502
lthumb 10.5135 7.71603
rfemur -23.6593 -3.5598 9.65523
rtibia 49.0457
rfoot -183.397 -182.065
rtoes -12.6264
lfemur 12.5471 -14.9679 -7.36072
ltibia 51.5594
lfoot -9.22486 -9.10643
ltoes -46.9252
50
root -2.86971 16.1478 -23.6951 162.345 -32.476 -179.028
lowerback 11.154 0.382062 -3.34621
upperback 10.1562 -0.836262 -1.27035
thorax 4.41991 -1.05911 0.567863
lowerneck 4.64666 -8.87981 -12.4724
upperneck -1.73338 -12.9765 20.7253
head 0.958345 -6.93291 8.2396
rclavicle 2.44505e-014 6.36111e-015
rhumerus -7.80945 26.7293 -87.5362
rradius 121.475
rwrist 17.7304
rhand -32.6078 9.86916
rfingers 7.12502
rthumb -5.83558 -20.0305
lclavicle 2.44505e-014 6.36111e-015
lhumerus 9.44257 -54.1427 90.3379
lradius 110.709
lwrist 43.5491
lhand -15.584 -22.1498
lfingers 7.12502
lthumb 10.6014 7.5628
rfemur -22.964 -3.91087 10.4538
rtibia 49.4402
rfoot -183.432 -181.812
rtoes -12.4483
lfemur 10.0672 -15.6858 -6.93738
ltibia 56.9045
lfoot -4.3832 -8.89216
ltoes -47.6668
51
root -2.82563 16.1369 -23.8266 161.313 -32.4493 -178.377
lowerback 11.6572 0.535355 -2.64653
upperback 10.3625 -0.645956 -1.13864
thorax 4.35508 -0.948757 0.302894
lowerneck 4.63391 -8.78108 -12.5211
upperneck -1.39328 -12.8902 20.7085
head 1.04368 -6.87867 8.23888
rclavicle 1.1778e-013 -5.24792e-014
rhumerus -6.75858 26.947 -87.0073
rradius 121.291
rwrist 17.6559
rhand -32.6665 9.29166
rfingers 7.12502
rthumb -5.8922 -20.6064
lclavicle 1.1778e-013 -5.24792e-014
lhumerus 10.9004 -53.6868 89.2287
lradius 110.458
lwrist 44.0354
lhand -15.5774 -22.2274
lfingers 7.12502
lthumb 10.6078 7.48491
rfemur -22.0725 -4.16781 11.3455
rtibia 49.7503
rfoot -183.516 -181.717
rtoes -12.005
lfemur 7.55607 -16.4508 -6.45185
ltibia 62.3604
lfoot 1.36956 -8.72267
ltoes -47.9791
52
root -2.78156 16.1246 -23.9539 160.07 -32.3916 -177.65
lowerback 12.371 0.693365 -1.83762
upperback 10.6102 -0.457077 -1.00808
thorax 4.22822 -0.839538 -0.0256373
lowerneck 4.59876 -8.68816 -12.473
upperneck -1.03529 -12.8079 20.6512
head 1.12916 -6.82544 8.20778
rclavicle 6.91771e-014 -3.73715e-014
rhumerus -5.734 27.1523 -86.4549
rradius 121.207
rwrist 17.4498
rhand -32.683 8.74849
rfingers 7.12502
rthumb -5.90816 -21.1491
lclavicle 6.91771e-014 -3.73715e-014
lhumerus 12.3423 -53.2462 88.108
lradius 110.3
lwrist 44.7045
lhand -15.5832 -22.1641
lfingers 7.12502
lthumb 10.6023 7.5485
rfemur -20.9442 -4.37206 12.2906
rtibia 49.9824
rfoot -183.67 -181.709
rtoes -11.2815
lfemur 4.99588 -17.1621 -5.94841
ltibia 67.8642
lfoot 7.42965 -8.61495
ltoes -47.1353
53
root -2.73746 16.1132 -24.0767 158.632 -32.3234 -176.846
lowerback 13.2695 0.84628 -0.95342
upperback 10.901 -0.278808 -0.846204
thorax 4.05987 -0.739837 -0.365748
lowerneck 4.5755 -8.61045 -12.4328
upperneck -0.701575 -12.7439 20.5944
head 1.20963 -6.78231 8.17846
rclavicle -5.03919e-014 4.37326e-014
rhumerus -4.68263 27.3293 -85.8293
rradius 121.152
rwrist 17.1145
rhand -32.673 8.28479
rfingers 7.12502
rthumb -5.89853 -21.6131
lclavicle -5.03919e-014 4.37326e-014
lhumerus 13.727 -52.7804 87.0688
lradius 110.172
lwrist 45.3919
lhand -15.5689 -22.0008
lfingers 7.12502
lthumb 10.6161 7.71103
rfemur -19.6164 -4.62879 13.2759
rtibia 50.1459
rfoot -183.855 -181.697
rtoes -10.6612
lfemur 2.35131 -17.7857 -5.41077
ltibia 73.3551
lfoot 13.1894 -8.73764
ltoes -44.4031
54
root -2.69267 16.1026 -24.1945 157.075 -32.2511 -176.005
lowerback 14.3021 0.988466 0.0141303
upperback 11.22 -0.106992 -0.704701
thorax 3.86483 -0.644056 -0.77734
lowerneck 4.57516 -8.54797 -12.3283
upperneck -0.414932 -12.6973 20.5604
head 1.27325 -6.75226 8.14752
rclavicle 1.44119e-014 0
rhumerus -3.65117 27.4361 -85.1986
rradius 121.142
rwrist 16.704
rhand -32.6097 7.95456
rfingers 7.12502
rthumb -5.83737 -21.945
lclavicle 1.44119e-014 0
lhumerus 15.0893 -52.3696 86.0376
lradius 110.013
lwrist 46.1014
lhand -15.6111 -21.7872
lfingers 7.12502
lthumb 10.5754 7.92676
rfemur -18.1523 -4.93491 14.2595
rtibia 50.2335
rfoot -184.07 -181.637
rtoes -10.2395
lfemur -0.323558 -18.3156 -4.85995
ltibia 78.7506
lfoot 17.9608 -9.30494
ltoes -40.3643
55
root -2.64762 16.0919 -24.3083 155.366 -32.1974 -175.137
lowerback 15.4807 1.13029 1.02403
upperback 11.5733 0.0708821 -0.563024
thorax 3.64789 -0.550403 -1.2181
lowerneck 4.61505 -8.50471 -12.2244
upperneck -0.143251 -12.6864 20.5929
head 1.3365 -6.74483 8.13864
rclavicle 2.5842e-014 -9.54166e-015
rhumerus -2.62556 27.418 -84.5562
rradius 121.167
rwrist 16.2687
rhand -32.51 7.63655
rfingers 7.12502
rthumb -5.74115 -22.2657
lclavicle 2.5842e-014 -9.54166e-015
lhumerus 16.358 -51.9998 85.0654
lradius 109.809
lwrist 46.7235
lhand -15.6095 -21.6087
lfingers 7.12502
lthumb 10.5769 8.1051
rfemur -16.4862 -5.26787 15.2231
rtibia 50.2323
rfoot -184.284 -181.605
rtoes -9.86795
lfemur -2.91221 -18.7577 -4.33235
ltibia 83.9899
lfoot 21.5799 -10.533
ltoes -35.9029
56
root -2.60206 16.0861 -24.421 153.587 -32.2024 -174.312
lowerback 16.7322 1.25629 1.97411
upperback 11.9779 0.224027 -0.432089
thorax 3.46703 -0.480254 -1.63928
lowerneck 4.62398 -8.47781 -12.1264
upperneck 0.0990205 -12.6951 20.6686
head 1.40347 -6.7474 8.14225
rclavicle 7.95139e-016 2.46493e-014
rhumerus -1.58542 27.291 -83.9091
rradius 121.244
rwrist 15.7664
rhand -32.2946 7.46221
rfingers 7.12502
rthumb -5.53321 -22.4455
lclavicle 7.95139e-016 2.46493e-014
lhumerus 17.5977 -51.6122 84.1354
lradius 109.541
lwrist 47.1339
lhand -15.5966 -21.3543
lfingers 7.12502
lthumb 10.5893 8.35895
rfemur -14.6468 -5.64806 16.0866
rtibia 50.1286
rfoot -184.497 -181.562
rtoes -9.2133
lfemur -5.38709 -19.2627 -4.05872
ltibia 89.0605
lfoot 23.7418 -12.1191
ltoes -29.8515
57
root -2.55653 16.0871 -24.527 151.787 -32.1034 -173.52
lowerback 18.0578 1.40286 2.93657
upperback 12.3667 0.421933 -0.286338
thorax 3.25381 -0.391151 -2.06262
lowerneck 4.73118 -8.43632 -12.0359
upperneck 0.319293 -12.6921 20.7657
head 1.44727 -6.75048 8.16125
rclavicle 6.69904e-014 -4.29375e-014
rhumerus -0.570133 27.0962 -83.2486
rradius 121.27
rwrist 15.3218
rhand -32.0596 7.31906
rfingers 7.12502
rthumb -5.30624 -22.5945
lclavicle 6.69904e-014 -4.29375e-014
lhumerus 18.5664 -51.1939 83.4639
lradius 109.192
lwrist 47.3091
lhand -15.4155 -21.1661
lfingers 7.12502
lthumb 10.764 8.53806
rfemur -12.7373 -5.99978 16.9413
rtibia 49.9249
rfoot -184.665 -181.503
rtoes -8.6438
lfemur -7.85821 -19.4002 -3.78101
ltibia 93.9669
lfoot 24.5987 -13.9918
ltoes -25.876
58
root -2.511 16.0884 -24.6253 150.072 -31.8989 -172.892
lowerback 19.4019 1.59116 3.81103
upperback 12.7715 0.672129 -0.181415
thorax 3.07327 -0.284362 -2.49408
lowerneck 4.79189 -8.39192 -11.8525
upperneck 0.585275 -12.6857 20.8373
head 1.50339 -6.74861 8.15353
rclavicle 5.70512e-014 -1.59028e-015
rhumerus 0.438834 26.882 -82.6138
rradius 121.264
rwrist 14.9278
rhand -31.849 7.14131
rfingers 7.12502
rthumb -5.10289 -22.7772
lclavicle 5.70512e-014 -1.59028e-015
lhumerus 19.4157 -50.7861 82.8169
lradius 108.784
lwrist 47.2578
lhand -15.1617 -21.1258
lfingers 7.12502
lthumb 11.0088 8.56552
rfemur -10.8387 -6.25966 17.6856
rtibia 49.6508
rfoot -184.733 -181.458
rtoes -7.79105
lfemur -10.4274 -19.0868 -3.575
ltibia 98.7861
lfoot 24.2408 -15.4457
ltoes -24.8043
